<?xml version="1.0" encoding="UTF-8"?>
<svg xmlns="http://www.w3.org/2000/svg" width="292.7595pt" height="88.7262pt" viewBox="0 0 292.7595 88.7262">
<title>무역위원회 KOREA TRADE COMMISSION</title>
<desc>대한민국 정부상징 — 국영문 혼용 가로조합 Type B (영문 1행). 국문 양끝을 영문 폭에 맞춤(요청에 따른 가이드 예외). 캔버스는 보호공간(좌우 8r, 상하 5r)을 포함.</desc>
<g id="emblem">
<path fill="#FFFFFF" d="M86.289 45.2597C86.289 62.9177 71.973 77.2337 54.316 77.2337C36.657 77.2337 22.342 62.9177 22.342 45.2597C22.342 27.6027 36.657 13.2867 54.316 13.2867C71.973 13.2867 86.289 27.6027 86.289 45.2597"/>
<path fill="#003764" d="M69.3456 43.0302C64.2576 39.5722 57.7426 40.9802 54.3176 46.1792C51.4686 50.5252 47.1566 51.0662 45.4956 51.0662C40.0476 51.0662 36.3296 47.2362 35.2246 43.2762L35.2216 43.2762C35.2086 43.2332 35.2006 43.1982 35.1906 43.1632C35.1786 43.1182 35.1716 43.0752 35.1576 43.0302C34.7226 41.3742 34.6136 40.5882 34.6136 38.8312C34.6136 29.3652 44.3326 18.8212 58.3206 18.8212C72.6506 18.8212 80.8516 29.7292 82.9706 35.7932C82.9286 35.6792 82.8936 35.5772 82.8586 35.4702C78.7936 23.6112 67.5496 15.0872 54.3036 15.0872C37.6496 15.0872 24.1396 28.5902 24.1396 45.2592C24.1396 60.1542 34.8826 72.9032 49.7876 72.9032C61.6696 72.9032 69.6576 66.2412 73.3176 57.0552C75.3286 52.0302 73.9086 46.1292 69.3456 43.0302"/>
<path fill="#E4032E" d="M83.1552 36.3789C81.3882 30.4629 73.1342 18.8209 58.3202 18.8209C44.3332 18.8209 34.6132 29.3649 34.6132 38.8319C34.6132 40.5879 34.7222 41.3749 35.1572 43.0299C34.9752 42.3049 34.8832 41.5839 34.8832 40.8779C34.8832 31.0159 44.7542 24.1849 54.9032 24.1849C68.6442 24.1849 79.7822 35.3229 79.7822 49.0589C79.7822 59.8269 73.5842 69.1529 64.5822 73.6299L64.5822 73.6389C76.1902 69.4349 84.4792 58.3159 84.4792 45.2589C84.4792 42.1689 84.0652 39.4429 83.1552 36.3789"/>
</g>
<g id="name" fill="#575757">
<path d="M101.4579 24.0678L121.2499 24.0678L121.2499 35.5248L101.4579 35.5248ZM118.0985 26.8658L104.6093 26.8658L104.6093 32.7268L118.0985 32.7268ZM99.5729 42.3872L99.5729 39.5598L123.1349 39.5598L123.1349 42.3872L112.9443 42.3872L112.9443 48.9846L109.734 48.9846L109.734 42.3872Z"/>
<path d="M150.7293 30.2234C150.7293 31.1462 150.5428 32.0151 150.1697 32.8299C149.7966 33.6448 149.2861 34.3565 148.6382 34.9652C147.9902 35.5739 147.2343 36.0549 146.3703 36.4084C145.5064 36.7618 144.5934 36.9385 143.6313 36.9385C142.6692 36.9385 141.7561 36.7618 140.8922 36.4084C140.0283 36.0549 139.2723 35.5739 138.6244 34.9652C137.9764 34.3565 137.4659 33.6448 137.0928 32.8299C136.7198 32.0151 136.5332 31.1462 136.5332 30.2234C136.5332 29.3005 136.7198 28.4317 137.0928 27.6168C137.4659 26.802 137.9764 26.0902 138.6244 25.4815C139.2723 24.8728 140.0283 24.3918 140.8922 24.0384C141.7561 23.6849 142.6692 23.5082 143.6313 23.5082C144.5934 23.5082 145.5064 23.6849 146.3703 24.0384C147.2343 24.3918 147.9902 24.8728 148.6382 25.4815C149.2861 26.0902 149.7966 26.802 150.1697 27.6168C150.5428 28.4317 150.7293 29.3005 150.7293 30.2234ZM147.6368 30.2528C147.6368 29.703 147.5288 29.1876 147.3128 28.7066C147.0968 28.2255 146.8121 27.7984 146.4587 27.4254C146.0856 27.072 145.6586 26.7872 145.1775 26.5713C144.6965 26.3553 144.1811 26.2473 143.6313 26.2473C143.0815 26.2473 142.571 26.3553 142.0997 26.5713C141.6285 26.7872 141.2064 27.072 140.8333 27.4254C140.4799 27.7984 140.1952 28.2255 139.9792 28.7066C139.7632 29.1876 139.6552 29.703 139.6552 30.2528C139.6552 30.8026 139.7632 31.3131 139.9792 31.7843C140.1952 32.2556 140.4799 32.6777 140.8333 33.0508C141.2064 33.4042 141.6285 33.6889 142.0997 33.9049C142.571 34.1209 143.0815 34.2289 143.6313 34.2289C144.1811 34.2289 144.6965 34.1209 145.1775 33.9049C145.6586 33.6889 146.0856 33.4042 146.4587 33.0508C146.8121 32.6777 147.0968 32.2556 147.3128 31.7843C147.5288 31.3131 147.6368 30.8026 147.6368 30.2528ZM155.589 23.3315L158.7698 23.3315L158.7698 37.7337L155.589 37.7337L155.589 34.4056L151.5245 34.4056L151.5245 31.7843L155.589 31.7843L155.589 28.6624L151.5245 28.6624L151.5245 26.0411L155.589 26.0411ZM138.2709 39.2653L158.7698 39.2653L158.7698 48.7489L155.589 48.7489L155.589 42.0927L138.2709 42.0927Z"/>
<path d="M185.0684 30.2823C185.0684 29.2613 184.6953 28.3826 183.9492 27.6463C183.203 26.91 182.3097 26.5418 181.269 26.5418C180.2284 26.5418 179.3399 26.91 178.6036 27.6463C177.8672 28.3826 177.4991 29.2613 177.4991 30.2823C177.4991 31.3033 177.8672 32.182 178.6036 32.9183C179.3399 33.6546 180.2284 34.0227 181.269 34.0227C182.3097 34.0227 183.203 33.6546 183.9492 32.9183C184.6953 32.182 185.0684 31.3033 185.0684 30.2823ZM188.1903 30.2823C188.1903 31.1658 188.0087 32.0003 187.6455 32.7857C187.2822 33.5711 186.7864 34.2583 186.1581 34.8474C185.5298 35.4364 184.7935 35.9028 183.9492 36.2464C183.1049 36.59 182.2115 36.7618 181.269 36.7618C180.3265 36.7618 179.4331 36.59 178.5888 36.2464C177.7445 35.9028 177.0082 35.4364 176.3799 34.8474C175.7516 34.2583 175.2558 33.5711 174.8926 32.7857C174.5293 32.0003 174.3477 31.1658 174.3477 30.2823C174.3477 29.3987 174.5293 28.5642 174.8926 27.7788C175.2558 26.9934 175.7516 26.3062 176.3799 25.7171C177.0082 25.1281 177.7445 24.6618 178.5888 24.3182C179.4331 23.9745 180.3265 23.8027 181.269 23.8027C182.2115 23.8027 183.1049 23.9745 183.9492 24.3182C184.7935 24.6618 185.5298 25.1281 186.1581 25.7171C186.7864 26.3062 187.2822 26.9934 187.6455 27.7788C188.0087 28.5642 188.1903 29.3987 188.1903 30.2823ZM189.9575 41.2091L182.8889 41.2091L182.8889 48.1599L179.708 48.1599L179.708 41.2091L172.9045 41.2091L172.9045 38.3817L189.9575 38.3817ZM191.9897 23.3315L195.1705 23.3315L195.1705 48.9846L191.9897 48.9846Z"/>
<path d="M221.3218 28.9569C221.3218 28.0537 220.9929 27.2879 220.3352 26.6596C219.6774 26.0313 218.8969 25.7171 217.9937 25.7171C217.0905 25.7171 216.31 26.0313 215.6522 26.6596C214.9945 27.2879 214.6656 28.0537 214.6656 28.9569C214.6656 29.8601 214.9945 30.6259 215.6522 31.2542C216.31 31.8825 217.0905 32.1967 217.9937 32.1967C218.8969 32.1967 219.6774 31.8825 220.3352 31.2542C220.9929 30.6259 221.3218 29.8601 221.3218 28.9569ZM224.4143 28.9569C224.4143 29.7816 224.2425 30.5522 223.8989 31.2689C223.5553 31.9856 223.0988 32.6188 222.5294 33.1686C221.9403 33.6988 221.258 34.1209 220.4824 34.4351C219.7069 34.7492 218.8773 34.9063 217.9937 34.9063C217.1101 34.9063 216.2806 34.7492 215.505 34.4351C214.7294 34.1209 214.0471 33.6988 213.458 33.1686C212.8886 32.6188 212.4321 31.9856 212.0885 31.2689C211.7449 30.5522 211.5731 29.7816 211.5731 28.9569C211.5731 28.1322 211.7449 27.3616 212.0885 26.6449C212.4321 25.9282 212.8886 25.295 213.458 24.7452C214.0471 24.2151 214.7294 23.7929 215.505 23.4788C216.2806 23.1646 217.1101 23.0075 217.9937 23.0075C218.8773 23.0075 219.7069 23.1646 220.4824 23.4788C221.258 23.7929 221.9403 24.2151 222.5294 24.7452C223.0988 25.295 223.5553 25.9282 223.8989 26.6449C224.2425 27.3616 224.4143 28.1322 224.4143 28.9569ZM226.6822 38.7351L219.8787 38.7351L219.8787 42.6228L216.6978 42.6228L216.6978 38.7351L209.6292 38.7351L209.6292 35.9371L226.6822 35.9371ZM228.7144 23.3315L231.8953 23.3315L231.8953 42.9174L228.7144 42.9174L228.7144 33.4631L225.1506 33.4631L225.1506 30.6946L228.7144 30.6946ZM211.3669 48.5428L211.3669 41.2091L214.5478 41.2091L214.5478 45.7742L232.1898 45.7742L232.1898 48.5428Z"/>
<path d="M253.0102 25.8939L253.0102 23.1548L256.4561 23.1548L256.4561 25.8939L262.5528 25.8939L262.5528 28.6329L246.8841 28.6329L246.8841 25.8939ZM257.9287 34.8474C257.9287 34.0031 257.6195 33.2766 257.001 32.6679C256.3825 32.0592 255.6314 31.7549 254.7479 31.7549C253.8643 31.7549 253.1182 32.0592 252.5095 32.6679C251.9008 33.2766 251.5965 34.0031 251.5965 34.8474C251.5965 35.6917 251.9008 36.4182 252.5095 37.0269C253.1182 37.6356 253.8643 37.9399 254.7479 37.9399C255.6314 37.9399 256.3825 37.6356 257.001 37.0269C257.6195 36.4182 257.9287 35.6917 257.9287 34.8474ZM261.0212 34.8474C261.0212 35.6328 260.8592 36.3789 260.5353 37.0858C260.2113 37.7926 259.7646 38.4111 259.1952 38.9413C258.6258 39.4714 257.9582 39.8838 257.1924 40.1783C256.8783 40.2961 256.5936 40.3845 256.3383 40.4434L256.3383 43.6831L263.4069 43.6831L263.4069 46.4811L246.3539 46.4811L246.3539 43.6831L253.1574 43.6831L253.1574 40.4434C252.9022 40.3845 252.6175 40.2961 252.3033 40.1783C251.5376 39.8838 250.87 39.4714 250.3006 38.9413C249.7311 38.4111 249.2844 37.7926 248.9605 37.0858C248.6365 36.3789 248.4745 35.6328 248.4745 34.8474C248.4745 34.062 248.6365 33.3159 248.9605 32.609C249.2844 31.9022 249.7311 31.2837 250.3006 30.7535C250.87 30.2234 251.5376 29.811 252.3033 29.5165C253.0691 29.222 253.8839 29.0747 254.7479 29.0747C255.6118 29.0747 256.4267 29.222 257.1924 29.5165C257.9582 29.811 258.6258 30.2234 259.1952 30.7535C259.7646 31.2837 260.2113 31.9022 260.5353 32.609C260.8592 33.3159 261.0212 34.062 261.0212 34.8474ZM265.4391 23.3315L268.62 23.3315L268.62 48.9846L265.4391 48.9846Z"/>
<path d="M101.0874 62.3903L104.8469 58.1791L106.6669 58.1791L102.6417 62.6693L106.6536 67.2259L104.7805 67.2259L101.0874 63.0147L101.0874 67.2259L99.5729 67.2259L99.5729 58.1791L101.0874 58.1791Z"/>
<path d="M111.0641 58.0196C112.366 58.0196 113.4686 58.4735 114.372 59.3813C115.2754 60.2891 115.727 61.3984 115.727 62.7091C115.727 64.0199 115.2754 65.1269 114.372 66.0303C113.4686 66.9336 112.366 67.3853 111.0641 67.3853C109.7622 67.3853 108.6596 66.9336 107.7562 66.0303C106.8529 65.1269 106.4012 64.0199 106.4012 62.7091C106.4012 61.3984 106.8529 60.2891 107.7562 59.3813C108.6596 58.4735 109.7622 58.0196 111.0641 58.0196ZM111.0641 66.11C111.9232 66.11 112.6627 65.7912 113.2827 65.1535C113.9026 64.4893 114.2126 63.6745 114.2126 62.7091C114.2126 61.7349 113.9026 60.9157 113.2827 60.2515C112.6627 59.6138 111.9232 59.295 111.0641 59.295C110.2051 59.295 109.4655 59.6138 108.8456 60.2515C108.2256 60.9157 107.9157 61.7349 107.9157 62.7091C107.9157 63.6745 108.2256 64.4893 108.8456 65.1535C109.4655 65.7912 110.2051 66.11 111.0641 66.11Z"/>
<path d="M121.2667 63.6523L123.8705 67.2259L122.0904 67.2259L119.6593 63.7586L118.7559 63.7586L118.7559 67.2259L117.2415 67.2259L117.2415 58.1791L120.1641 58.1791C121.2534 58.1791 122.0926 58.4337 122.6815 58.9429C123.2705 59.4522 123.565 60.1275 123.565 60.9688C123.565 61.8102 123.2727 62.4833 122.6882 62.9881C122.3074 63.3158 121.8335 63.5372 121.2667 63.6523ZM122.0372 60.9688C122.0372 60.464 121.8645 60.0832 121.5191 59.8263C121.1737 59.5695 120.6114 59.4411 119.832 59.4411L118.7559 59.4411L118.7559 62.4966L119.832 62.4966C120.6114 62.4966 121.1737 62.3681 121.5191 62.1113C121.8645 61.8545 122.0372 61.4736 122.0372 60.9688Z"/>
<path d="M130.8051 67.2259L124.8536 67.2259L124.8536 58.1791L130.7785 58.1791L130.7785 59.4411L126.3813 59.4411L126.3813 62.0582L130.6723 62.0582L130.6723 63.2804L126.3813 63.2804L126.3813 65.9639L130.8051 65.9639Z"/>
<path d="M134.4584 63.3069L137.0755 63.3069L135.7736 59.5075ZM136.7965 58.1791L139.9582 67.2259L138.4172 67.2259L137.5006 64.569L134.0333 64.569L133.1166 67.2259L131.5623 67.2259L134.7241 58.1791Z"/>
<path d="M147.8891 59.4544L147.8891 67.2259L146.3747 67.2259L146.3747 59.4544L143.6115 59.4544L143.6115 58.1791L150.6524 58.1791L150.6524 59.4544Z"/>
<path d="M155.7935 63.6523L158.3973 67.2259L156.6172 67.2259L154.1861 63.7586L153.2827 63.7586L153.2827 67.2259L151.7683 67.2259L151.7683 58.1791L154.6909 58.1791C155.7802 58.1791 156.6194 58.4337 157.2083 58.9429C157.7973 59.4522 158.0918 60.1275 158.0918 60.9688C158.0918 61.8102 157.7995 62.4833 157.215 62.9881C156.8341 63.3158 156.3603 63.5372 155.7935 63.6523ZM156.564 60.9688C156.564 60.464 156.3913 60.0832 156.0459 59.8263C155.7005 59.5695 155.1381 59.4411 154.3588 59.4411L153.2827 59.4411L153.2827 62.4966L154.3588 62.4966C155.1381 62.4966 155.7005 62.3681 156.0459 62.1113C156.3913 61.8545 156.564 61.4736 156.564 60.9688Z"/>
<path d="M161.559 63.3069L164.1761 63.3069L162.8742 59.5075ZM163.8971 58.1791L167.0589 67.2259L165.5179 67.2259L164.6012 64.569L161.1339 64.569L160.2173 67.2259L158.663 67.2259L161.8247 58.1791Z"/>
<path d="M174.0333 62.7091C174.0333 61.6995 173.7322 60.9024 173.13 60.3179C172.5277 59.7334 171.7085 59.4411 170.6723 59.4411L169.4103 59.4411L169.4103 65.9639L170.6723 65.9639C171.7085 65.9639 172.5277 65.6716 173.13 65.0871C173.7322 64.5025 174.0333 63.7099 174.0333 62.7091ZM175.5478 62.7091C175.5478 64.011 175.1182 65.0893 174.2592 65.9439C173.4001 66.7986 172.2797 67.2259 170.8981 67.2259L167.8958 67.2259L167.8958 58.1791L170.8981 58.1791C172.2797 58.1791 173.4001 58.6064 174.2592 59.461C175.1182 60.3157 175.5478 61.3984 175.5478 62.7091Z"/>
<path d="M183.0005 67.2259L177.0489 67.2259L177.0489 58.1791L182.9739 58.1791L182.9739 59.4411L178.5767 59.4411L178.5767 62.0582L182.8676 62.0582L182.8676 63.2804L178.5767 63.2804L178.5767 65.9639L183.0005 65.9639Z"/>
<path d="M192.685 66.11C193.6326 66.11 194.4961 65.8044 195.2755 65.1933L195.8998 66.296C195.0939 67.0222 194.0223 67.3853 192.685 67.3853C191.3831 67.3853 190.2804 66.9358 189.3771 66.0369C188.4737 65.138 188.022 64.0287 188.022 62.7091C188.022 61.3806 188.4737 60.267 189.3771 59.368C190.2804 58.4691 191.3831 58.0196 192.685 58.0196C194.0046 58.0196 195.0585 58.3827 195.8467 59.109L195.2356 60.2116C194.4651 59.6005 193.6149 59.295 192.685 59.295C191.8259 59.295 191.0864 59.6138 190.4664 60.2515C189.8465 60.9245 189.5365 61.7438 189.5365 62.7091C189.5365 63.6745 189.8465 64.4893 190.4664 65.1535C191.0864 65.7912 191.8259 66.11 192.685 66.11Z"/>
<path d="M201.5325 58.0196C202.8344 58.0196 203.937 58.4735 204.8404 59.3813C205.7438 60.2891 206.1954 61.3984 206.1954 62.7091C206.1954 64.0199 205.7438 65.1269 204.8404 66.0303C203.937 66.9336 202.8344 67.3853 201.5325 67.3853C200.2306 67.3853 199.128 66.9336 198.2247 66.0303C197.3213 65.1269 196.8696 64.0199 196.8696 62.7091C196.8696 61.3984 197.3213 60.2891 198.2247 59.3813C199.128 58.4735 200.2306 58.0196 201.5325 58.0196ZM201.5325 66.11C202.3916 66.11 203.1311 65.7912 203.7511 65.1535C204.371 64.4893 204.681 63.6745 204.681 62.7091C204.681 61.7349 204.371 60.9157 203.7511 60.2515C203.1311 59.6138 202.3916 59.295 201.5325 59.295C200.6735 59.295 199.9339 59.6138 199.314 60.2515C198.694 60.9157 198.3841 61.7349 198.3841 62.7091C198.3841 63.6745 198.694 64.4893 199.314 65.1535C199.9339 65.7912 200.6735 66.11 201.5325 66.11Z"/>
<path d="M216.7434 58.1791L216.7434 67.2259L215.2954 67.2259L215.2954 59.9459L212.9307 67.2259L211.5226 67.2259L209.1712 59.9459L209.1712 67.2259L207.7099 67.2259L207.7099 58.1791L209.9417 58.1791L212.2267 65.2199L214.5116 58.1791Z"/>
<path d="M227.5837 58.1791L227.5837 67.2259L226.1357 67.2259L226.1357 59.9459L223.771 67.2259L222.3628 67.2259L220.0115 59.9459L220.0115 67.2259L218.5502 67.2259L218.5502 58.1791L220.782 58.1791L223.0669 65.2199L225.3519 58.1791Z"/>
<path d="M229.3904 67.2259L229.3904 58.1791L230.9182 58.1791L230.9182 67.2259Z"/>
<path d="M232.2865 65.3926L233.2828 64.383C233.5574 64.9498 233.8983 65.3705 234.3057 65.645C234.7397 65.9373 235.1825 66.0834 235.6342 66.0834C236.1124 66.0834 236.5198 65.9594 236.8564 65.7114C237.1929 65.4635 237.3612 65.1402 237.3612 64.7417C237.3612 64.3874 237.1907 64.0996 236.8497 63.8782C236.5088 63.6568 236.139 63.4708 235.7405 63.3202C235.3419 63.1696 234.9257 63.0102 234.4917 62.842C233.8009 62.5851 233.3072 62.2552 233.0105 61.8523C232.7138 61.4493 232.5654 61.022 232.5654 60.5703C232.5654 59.8706 232.8621 59.2706 233.4555 58.7702C234.0489 58.2698 234.7796 58.0196 235.6475 58.0196C236.5597 58.0196 237.2992 58.2543 237.866 58.7237C238.1583 58.954 238.362 59.2064 238.4771 59.4809L237.5738 60.4374C237.494 60.278 237.3479 60.1009 237.1354 59.9061C236.7014 59.5075 236.1789 59.3082 235.5678 59.3082C235.1869 59.3082 234.8526 59.4145 234.5648 59.6271C234.277 59.8396 234.133 60.123 234.133 60.4773C234.133 61.0175 234.722 61.4914 235.8999 61.8988C236.1124 61.9696 236.3339 62.0493 236.5641 62.1379C237.3523 62.439 237.9435 62.7955 238.3376 63.2073C238.7317 63.6191 238.9288 64.1261 238.9288 64.7284C238.9288 65.4457 238.6232 66.0657 238.0122 66.5882C237.4011 67.1196 236.6173 67.3853 235.6608 67.3853C234.7751 67.3853 234.0445 67.186 233.4688 66.7875C232.9108 66.3978 232.5167 65.9329 232.2865 65.3926Z"/>
<path d="M239.6594 65.3926L240.6558 64.383C240.9303 64.9498 241.2713 65.3705 241.6787 65.645C242.1127 65.9373 242.5555 66.0834 243.0072 66.0834C243.4854 66.0834 243.8928 65.9594 244.2294 65.7114C244.5659 65.4635 244.7342 65.1402 244.7342 64.7417C244.7342 64.3874 244.5637 64.0996 244.2227 63.8782C243.8817 63.6568 243.512 63.4708 243.1135 63.3202C242.7149 63.1696 242.2987 63.0102 241.8647 62.842C241.1739 62.5851 240.6801 62.2552 240.3835 61.8523C240.0868 61.4493 239.9384 61.022 239.9384 60.5703C239.9384 59.8706 240.2351 59.2706 240.8285 58.7702C241.4219 58.2698 242.1525 58.0196 243.0205 58.0196C243.9327 58.0196 244.6722 58.2543 245.239 58.7237C245.5313 58.954 245.735 59.2064 245.8501 59.4809L244.9467 60.4374C244.867 60.278 244.7209 60.1009 244.5083 59.9061C244.0744 59.5075 243.5518 59.3082 242.9408 59.3082C242.5599 59.3082 242.2256 59.4145 241.9378 59.6271C241.6499 59.8396 241.506 60.123 241.506 60.4773C241.506 61.0175 242.095 61.4914 243.2729 61.8988C243.4854 61.9696 243.7068 62.0493 243.9371 62.1379C244.7253 62.439 245.3165 62.7955 245.7106 63.2073C246.1047 63.6191 246.3018 64.1261 246.3018 64.7284C246.3018 65.4457 245.9962 66.0657 245.3851 66.5882C244.774 67.1196 243.9902 67.3853 243.0337 67.3853C242.1481 67.3853 241.4174 67.186 240.8418 66.7875C240.2838 66.3978 239.8897 65.9329 239.6594 65.3926Z"/>
<path d="M247.524 67.2259L247.524 58.1791L249.0517 58.1791L249.0517 67.2259Z"/>
<path d="M255.2955 58.0196C256.5974 58.0196 257.7 58.4735 258.6033 59.3813C259.5067 60.2891 259.9584 61.3984 259.9584 62.7091C259.9584 64.0199 259.5067 65.1269 258.6033 66.0303C257.7 66.9336 256.5974 67.3853 255.2955 67.3853C253.9936 67.3853 252.8909 66.9336 251.9876 66.0303C251.0842 65.1269 250.6326 64.0199 250.6326 62.7091C250.6326 61.3984 251.0842 60.2891 251.9876 59.3813C252.8909 58.4735 253.9936 58.0196 255.2955 58.0196ZM255.2955 66.11C256.1545 66.11 256.8941 65.7912 257.514 65.1535C258.134 64.4893 258.4439 63.6745 258.4439 62.7091C258.4439 61.7349 258.134 60.9157 257.514 60.2515C256.8941 59.6138 256.1545 59.295 255.2955 59.295C254.4364 59.295 253.6969 59.6138 253.0769 60.2515C252.457 60.9157 252.147 61.7349 252.147 62.7091C252.147 63.6745 252.457 64.4893 253.0769 65.1535C253.6969 65.7912 254.4364 66.11 255.2955 66.11Z"/>
<path d="M266.3881 67.2259L262.9873 59.8529L262.9873 67.2259L261.4728 67.2259L261.4728 58.1791L263.7046 58.1791L267.1188 65.5786L267.1188 58.1791L268.62 58.1791L268.62 67.2259Z"/>
</g>
</svg>
