<?xml version="1.0" encoding="UTF-8"?>
<svg xmlns="http://www.w3.org/2000/svg" width="334.7624pt" height="88.7262pt" viewBox="0 0 334.7624 88.7262">
<title>고용노동부 부산지방고용노동청</title>
<desc>대한민국 정부상징 — 본부 병기형 국문 가로조합 A type (2행). 캔버스는 보호공간(좌우 8r, 상하 5r)을 포함.</desc>
<g id="emblem">
<path fill="#FFFFFF" d="M86.289 45.2597C86.289 62.9177 71.973 77.2337 54.316 77.2337C36.657 77.2337 22.342 62.9177 22.342 45.2597C22.342 27.6027 36.657 13.2867 54.316 13.2867C71.973 13.2867 86.289 27.6027 86.289 45.2597"/>
<path fill="#003764" d="M69.3456 43.0302C64.2576 39.5722 57.7426 40.9802 54.3176 46.1792C51.4686 50.5252 47.1566 51.0662 45.4956 51.0662C40.0476 51.0662 36.3296 47.2362 35.2246 43.2762L35.2216 43.2762C35.2086 43.2332 35.2006 43.1982 35.1906 43.1632C35.1786 43.1182 35.1716 43.0752 35.1576 43.0302C34.7226 41.3742 34.6136 40.5882 34.6136 38.8312C34.6136 29.3652 44.3326 18.8212 58.3206 18.8212C72.6506 18.8212 80.8516 29.7292 82.9706 35.7932C82.9286 35.6792 82.8936 35.5772 82.8586 35.4702C78.7936 23.6112 67.5496 15.0872 54.3036 15.0872C37.6496 15.0872 24.1396 28.5902 24.1396 45.2592C24.1396 60.1542 34.8826 72.9032 49.7876 72.9032C61.6696 72.9032 69.6576 66.2412 73.3176 57.0552C75.3286 52.0302 73.9086 46.1292 69.3456 43.0302"/>
<path fill="#E4032E" d="M83.1552 36.3789C81.3882 30.4629 73.1342 18.8209 58.3202 18.8209C44.3332 18.8209 34.6132 29.3649 34.6132 38.8319C34.6132 40.5879 34.7222 41.3749 35.1572 43.0299C34.9752 42.3049 34.8832 41.5839 34.8832 40.8779C34.8832 31.0159 44.7542 24.1849 54.9032 24.1849C68.6442 24.1849 79.7822 35.3229 79.7822 49.0589C79.7822 59.8269 73.5842 69.1529 64.5822 73.6299L64.5822 73.6389C76.1902 69.4349 84.4792 58.3159 84.4792 45.2589C84.4792 42.1689 84.0652 39.4429 83.1552 36.3789"/>
</g>
<g id="name" fill="#575757">
<path d="M113.0433 32.6653L113.0433 24.7543L102.3029 24.7543L102.3029 22.9301L115.1094 22.9301L115.1094 32.6653ZM106.9936 35.5691L106.9936 30.4316L109.0412 30.4316L109.0412 35.5691L116.3752 35.5691L116.3752 37.3933L101.1116 37.3933L101.1116 35.5691Z"/>
<path d="M128.1952 24.9776C128.1952 24.4068 127.9936 23.9259 127.5903 23.535C127.187 23.1441 126.6999 22.9487 126.129 22.9487C125.5582 22.9487 125.0711 23.1441 124.6678 23.535C124.2645 23.9259 124.0629 24.4068 124.0629 24.9776C124.0629 25.5485 124.2645 26.0262 124.6678 26.4109C125.0711 26.7956 125.5582 26.988 126.129 26.988C126.6999 26.988 127.187 26.7956 127.5903 26.4109C127.9936 26.0262 128.1952 25.5485 128.1952 24.9776ZM130.2242 24.9776C130.2242 25.4864 130.1156 25.9673 129.8984 26.4202C129.6813 26.8732 129.3927 27.2734 129.0329 27.6209C128.6482 27.9683 128.2076 28.2413 127.7113 28.4399C127.2149 28.6384 126.6875 28.7377 126.129 28.7377C125.5706 28.7377 125.0432 28.6384 124.5468 28.4399C124.0505 28.2413 123.6099 27.9683 123.2252 27.6209C122.8654 27.2734 122.5768 26.8732 122.3597 26.4202C122.1425 25.9673 122.0339 25.4864 122.0339 24.9776C122.0339 24.4688 122.1425 23.9849 122.3597 23.5257C122.5768 23.0666 122.8654 22.6633 123.2252 22.3158C123.6099 21.9808 124.0505 21.7108 124.5468 21.5061C125.0432 21.3013 125.5706 21.199 126.129 21.199C126.6875 21.199 127.2149 21.3013 127.7113 21.5061C128.2076 21.7108 128.6482 21.9808 129.0329 22.3158C129.3927 22.6633 129.6813 23.0666 129.8984 23.5257C130.1156 23.9849 130.2242 24.4688 130.2242 24.9776ZM133.7609 29.5753L133.7609 31.3623L118.4972 31.3623L118.4972 29.5753L121.5686 29.5753L121.5686 28.049L123.6161 28.049L123.6161 29.5753L128.642 29.5753L128.642 28.049L130.6895 28.049L130.6895 29.5753ZM128.1952 35.5877C128.1952 35.0169 127.9936 34.5391 127.5903 34.1544C127.187 33.7697 126.6999 33.5774 126.129 33.5774C125.5582 33.5774 125.0711 33.7697 124.6678 34.1544C124.2645 34.5391 124.0629 35.0169 124.0629 35.5877C124.0629 36.1586 124.2645 36.6394 124.6678 37.0303C125.0711 37.4212 125.5582 37.6167 126.129 37.6167C126.6999 37.6167 127.187 37.4212 127.5903 37.0303C127.9936 36.6394 128.1952 36.1586 128.1952 35.5877ZM130.2242 35.5877C130.2242 36.0965 130.1156 36.5805 129.8984 37.0396C129.6813 37.4988 129.3927 37.8959 129.0329 38.2309C128.6482 38.5784 128.2076 38.8545 127.7113 39.0593C127.2149 39.264 126.6875 39.3664 126.129 39.3664C125.5706 39.3664 125.0432 39.264 124.5468 39.0593C124.0505 38.8545 123.6099 38.5784 123.2252 38.2309C122.8654 37.8959 122.5768 37.4988 122.3597 37.0396C122.1425 36.5805 122.0339 36.0965 122.0339 35.5877C122.0339 35.0789 122.1425 34.595 122.3597 34.1358C122.5768 33.6767 122.8654 33.2796 123.2252 32.9445C123.6099 32.597 124.0505 32.3209 124.5468 32.1162C125.0432 31.9114 125.5706 31.809 126.129 31.809C126.6875 31.809 127.2149 31.9114 127.7113 32.1162C128.2076 32.3209 128.6482 32.597 129.0329 32.9445C129.3927 33.2796 129.6813 33.6767 129.8984 34.1358C130.1156 34.595 130.2242 35.0789 130.2242 35.5877Z"/>
<path d="M137.1114 31.5671L137.1114 22.7253L139.159 22.7253L139.159 29.7429L150.1041 29.7429L150.1041 31.5671L144.5385 31.5671L144.5385 35.5691L151.1465 35.5691L151.1465 37.3933L135.8829 37.3933L135.8829 35.5691L142.4723 35.5691L142.4723 31.5671Z"/>
<path d="M154.4971 27.9001L154.4971 22.2227L167.3037 22.2227L167.3037 23.9725L156.5446 23.9725L156.5446 26.1689L167.3409 26.1689L167.3409 27.9001L161.9242 27.9001L161.9242 29.4078L168.5322 29.4078L168.5322 31.1948L153.2685 31.1948L153.2685 29.4078L159.858 29.4078L159.858 27.9001ZM163.041 35.5133C163.041 34.9424 162.8269 34.4492 162.3988 34.0334C161.9707 33.6177 161.4712 33.4099 160.9004 33.4099C160.3295 33.4099 159.8301 33.6177 159.4019 34.0334C158.9738 34.4492 158.7597 34.9424 158.7597 35.5133C158.7597 36.0841 158.9738 36.5774 159.4019 36.9931C159.8301 37.4088 160.3295 37.6167 160.9004 37.6167C161.4712 37.6167 161.9707 37.4088 162.3988 36.9931C162.8269 36.5774 163.041 36.0841 163.041 35.5133ZM165.07 35.5133C165.07 36.0469 164.9583 36.5464 164.7349 37.0117C164.5115 37.4771 164.2137 37.8835 163.8414 38.2309C163.4691 38.5784 163.0286 38.8545 162.5198 39.0593C162.011 39.264 161.4712 39.3664 160.9004 39.3664C160.3295 39.3664 159.7897 39.264 159.2809 39.0593C158.7721 38.8545 158.3316 38.5784 157.9593 38.2309C157.587 37.8835 157.2892 37.4771 157.0658 37.0117C156.8425 36.5464 156.7308 36.0469 156.7308 35.5133C156.7308 34.9797 156.8425 34.4802 157.0658 34.0148C157.2892 33.5495 157.587 33.1431 157.9593 32.7956C158.3316 32.4481 158.7721 32.172 159.2809 31.9673C159.7897 31.7625 160.3295 31.6601 160.9004 31.6601C161.4712 31.6601 162.011 31.7625 162.5198 31.9673C163.0286 32.172 163.4691 32.4481 163.8414 32.7956C164.2137 33.1431 164.5115 33.5495 164.7349 34.0148C164.9583 34.4802 165.07 34.9797 165.07 35.5133Z"/>
<path d="M173.9117 24.4006L182.6418 24.4006L182.6418 22.2972L184.6893 22.2972L184.6893 30.2827L171.8827 30.2827L171.8827 22.2972L173.9117 22.2972ZM182.6418 26.1876L173.9117 26.1876L173.9117 28.4771L182.6418 28.4771ZM170.6542 32.5164L185.9179 32.5164L185.9179 34.3406L179.3098 34.3406L179.3098 38.6218L177.2436 38.6218L177.2436 34.3406L170.6542 34.3406Z"/>
<path d="M105.5536 49.1019L117.4582 49.1019L117.4582 46.2337L120.2503 46.2337L120.2503 57.123L102.7868 57.123L102.7868 46.2337L105.5536 46.2337ZM117.4582 51.5387L105.5536 51.5387L105.5536 54.6608L117.4582 54.6608ZM101.1116 60.1689L121.9256 60.1689L121.9256 62.6565L112.9147 62.6565L112.9147 68.4946L110.0971 68.4946L110.0971 62.6565L101.1116 62.6565Z"/>
<path d="M130.9874 45.726L137.9423 57.326L135.6578 58.6967L130.9874 50.6249L126.3676 58.8744L124.0324 57.5037ZM143.1712 60.3466L140.3791 60.3466L140.3791 45.8529L143.1712 45.8529L143.1712 51.1833L146.4202 51.1833L146.4202 53.9501L143.1712 53.9501ZM128.5252 60.4735L128.5252 65.5501L143.755 65.5501L143.755 68.0377L125.7077 68.0377L125.7077 60.4735Z"/>
<path d="M148.2478 49.7365L148.2478 47.249L161.8785 47.249L161.8785 49.7365L156.1673 49.7365L162.4115 64.5348L159.9494 65.6009L155.152 54.0262L150.4307 65.7786L147.8924 64.7125L154.162 49.7365ZM165.559 45.8529L168.3765 45.8529L168.3765 68.4946L165.559 68.4946Z"/>
<path d="M181.3726 51.6656L175.1284 51.6656L175.1284 54.9654L181.3726 54.9654ZM184.114 57.326L172.3363 57.326L172.3363 46.3352L175.1284 46.3352L175.1284 49.305L181.3726 49.305L181.3726 46.3352L184.114 46.3352ZM190.5866 57.8591L187.7945 57.8591L187.7945 45.8529L190.5866 45.8529L190.5866 50.2949L193.8357 50.2949L193.8357 53.0871L190.5866 53.0871ZM189.4444 63.6718C189.4444 64.4333 189.2879 65.1482 188.9748 65.8166C188.6618 66.4851 188.2514 67.0731 187.7437 67.5808C187.2022 68.0884 186.5719 68.4903 185.8527 68.7865C185.1335 69.0826 184.3763 69.2307 183.5809 69.2307C182.7856 69.2307 182.0241 69.0826 181.2965 68.7865C180.5688 68.4903 179.9342 68.0884 179.3927 67.5808C178.8682 67.0731 178.4493 66.4851 178.1363 65.8166C177.8232 65.1482 177.6667 64.4333 177.6667 63.6718C177.6667 62.9103 177.8232 62.1953 178.1363 61.5269C178.4493 60.8585 178.8682 60.2705 179.3927 59.7628C179.9342 59.2551 180.5688 58.8532 181.2965 58.5571C182.0241 58.261 182.7856 58.1129 183.5809 58.1129C184.3763 58.1129 185.1335 58.261 185.8527 58.5571C186.5719 58.8532 187.2022 59.2551 187.7437 59.7628C188.2514 60.2705 188.6618 60.8585 188.9748 61.5269C189.2879 62.1953 189.4444 62.9103 189.4444 63.6718ZM186.703 63.6464C186.703 62.8003 186.39 62.0727 185.7639 61.4635C185.1378 60.8543 184.4016 60.5497 183.5555 60.5497C182.7094 60.5497 181.9776 60.8543 181.3599 61.4635C180.7423 62.0727 180.4334 62.8003 180.4334 63.6464C180.4334 64.5094 180.7423 65.2413 181.3599 65.842C181.9776 66.4428 182.7094 66.7431 183.5555 66.7431C184.4016 66.7431 185.1378 66.4428 185.7639 65.842C186.39 65.2413 186.703 64.5094 186.703 63.6464Z"/>
<path d="M212.213 60.372L212.213 49.5842L197.567 49.5842L197.567 47.0967L215.0305 47.0967L215.0305 60.372ZM203.9635 64.3317L203.9635 57.326L206.7556 57.326L206.7556 64.3317L216.7565 64.3317L216.7565 66.8193L195.9424 66.8193L195.9424 64.3317Z"/>
<path d="M232.8747 49.8888C232.8747 49.1104 232.5997 48.4547 232.0498 47.9216C231.4998 47.3886 230.8356 47.1221 230.0572 47.1221C229.2788 47.1221 228.6146 47.3886 228.0646 47.9216C227.5147 48.4547 227.2397 49.1104 227.2397 49.8888C227.2397 50.6672 227.5147 51.3187 228.0646 51.8433C228.6146 52.3679 229.2788 52.6302 230.0572 52.6302C230.8356 52.6302 231.4998 52.3679 232.0498 51.8433C232.5997 51.3187 232.8747 50.6672 232.8747 49.8888ZM235.6415 49.8888C235.6415 50.5826 235.4934 51.2383 235.1973 51.856C234.9011 52.4736 234.5077 53.0194 234.0169 53.4932C233.4924 53.967 232.8916 54.3393 232.2148 54.6101C231.5379 54.8808 230.8187 55.0162 230.0572 55.0162C229.2957 55.0162 228.5765 54.8808 227.8996 54.6101C227.2228 54.3393 226.622 53.967 226.0975 53.4932C225.6067 53.0194 225.2133 52.4736 224.9171 51.856C224.621 51.2383 224.4729 50.5826 224.4729 49.8888C224.4729 49.195 224.621 48.5351 224.9171 47.9089C225.2133 47.2828 225.6067 46.7329 226.0975 46.259C226.622 45.8021 227.2228 45.4341 227.8996 45.1549C228.5765 44.8757 229.2957 44.7361 230.0572 44.7361C230.8187 44.7361 231.5379 44.8757 232.2148 45.1549C232.8916 45.4341 233.4924 45.8021 234.0169 46.259C234.5077 46.7329 234.9011 47.2828 235.1973 47.9089C235.4934 48.5351 235.6415 49.195 235.6415 49.8888ZM240.4642 56.1584L240.4642 58.5952L219.6502 58.5952L219.6502 56.1584L223.8384 56.1584L223.8384 54.077L226.6305 54.077L226.6305 56.1584L233.4839 56.1584L233.4839 54.077L236.276 54.077L236.276 56.1584ZM232.8747 64.3571C232.8747 63.5787 232.5997 62.9272 232.0498 62.4026C231.4998 61.878 230.8356 61.6158 230.0572 61.6158C229.2788 61.6158 228.6146 61.878 228.0646 62.4026C227.5147 62.9272 227.2397 63.5787 227.2397 64.3571C227.2397 65.1355 227.5147 65.7913 228.0646 66.3243C228.6146 66.8573 229.2788 67.1239 230.0572 67.1239C230.8356 67.1239 231.4998 66.8573 232.0498 66.3243C232.5997 65.7913 232.8747 65.1355 232.8747 64.3571ZM235.6415 64.3571C235.6415 65.0509 235.4934 65.7109 235.1973 66.337C234.9011 66.9631 234.5077 67.5046 234.0169 67.9615C233.4924 68.4353 232.8916 68.8118 232.2148 69.0911C231.5379 69.3703 230.8187 69.5099 230.0572 69.5099C229.2957 69.5099 228.5765 69.3703 227.8996 69.0911C227.2228 68.8118 226.622 68.4353 226.0975 67.9615C225.6067 67.5046 225.2133 66.9631 224.9171 66.337C224.621 65.7109 224.4729 65.0509 224.4729 64.3571C224.4729 63.6633 224.621 63.0034 224.9171 62.3772C225.2133 61.7511 225.6067 61.2096 226.0975 60.7527C226.622 60.2789 227.2228 59.9024 227.8996 59.6232C228.5765 59.344 229.2957 59.2044 230.0572 59.2044C230.8187 59.2044 231.5379 59.344 232.2148 59.6232C232.8916 59.9024 233.4924 60.2789 234.0169 60.7527C234.5077 61.2096 234.9011 61.7511 235.1973 62.3772C235.4934 63.0034 235.6415 63.6633 235.6415 64.3571Z"/>
<path d="M245.0332 58.8744L245.0332 46.8175L247.8253 46.8175L247.8253 56.3869L262.7505 56.3869L262.7505 58.8744L255.161 58.8744L255.161 64.3317L264.172 64.3317L264.172 66.8193L243.3579 66.8193L243.3579 64.3317L252.3435 64.3317L252.3435 58.8744Z"/>
<path d="M268.7409 53.8739L268.7409 46.1321L286.2044 46.1321L286.2044 48.5181L271.533 48.5181L271.533 51.5133L286.2552 51.5133L286.2552 53.8739L278.8687 53.8739L278.8687 55.93L287.8797 55.93L287.8797 58.3667L267.0656 58.3667L267.0656 55.93L276.0512 55.93L276.0512 53.8739ZM280.3917 64.2556C280.3917 63.4772 280.0998 62.8045 279.516 62.2376C278.9322 61.6708 278.2511 61.3873 277.4726 61.3873C276.6942 61.3873 276.0131 61.6708 275.4293 62.2376C274.8455 62.8045 274.5536 63.4772 274.5536 64.2556C274.5536 65.034 274.8455 65.7067 275.4293 66.2735C276.0131 66.8404 276.6942 67.1239 277.4726 67.1239C278.2511 67.1239 278.9322 66.8404 279.516 66.2735C280.0998 65.7067 280.3917 65.034 280.3917 64.2556ZM283.1584 64.2556C283.1584 64.9832 283.0061 65.6643 282.7015 66.2989C282.3969 66.9335 281.9908 67.4877 281.4832 67.9615C280.9755 68.4353 280.3748 68.8118 279.681 69.0911C278.9872 69.3703 278.2511 69.5099 277.4726 69.5099C276.6942 69.5099 275.9581 69.3703 275.2643 69.0911C274.5705 68.8118 273.9698 68.4353 273.4621 67.9615C272.9545 67.4877 272.5483 66.9335 272.2437 66.2989C271.9391 65.6643 271.7869 64.9832 271.7869 64.2556C271.7869 63.5279 271.9391 62.8468 272.2437 62.2123C272.5483 61.5777 272.9545 61.0235 273.4621 60.5497C273.9698 60.0759 274.5705 59.6993 275.2643 59.4201C275.9581 59.1409 276.6942 59.0013 277.4726 59.0013C278.2511 59.0013 278.9872 59.1409 279.681 59.4201C280.3748 59.6993 280.9755 60.0759 281.4832 60.5497C281.9908 61.0235 282.3969 61.5777 282.7015 62.2123C283.0061 62.8468 283.1584 63.5279 283.1584 64.2556Z"/>
<path d="M290.621 50.168L290.621 47.8074L295.9261 47.8074L295.9261 45.5991L298.9213 45.5991L298.9213 47.8074L303.9725 47.8074L303.9725 50.168L298.4898 50.168L304.1756 55.93L302.2972 57.6814L297.3983 52.6048L292.6009 58.0875L290.6718 56.3107L296.3322 50.168ZM307.8053 58.519L307.8053 53.3663L303.8456 53.3663L303.8456 50.9549L307.8053 50.9549L307.8053 45.8529L310.6228 45.8529L310.6228 58.519ZM308.6937 63.6718C308.6937 64.4333 308.5372 65.1482 308.2241 65.8166C307.9111 66.4851 307.4923 67.0731 306.9677 67.5808C306.4431 68.0884 305.8212 68.4903 305.102 68.7865C304.3829 69.0826 303.6171 69.2307 302.8049 69.2307C302.0095 69.2307 301.2481 69.0826 300.5204 68.7865C299.7928 68.4903 299.1666 68.0884 298.6421 67.5808C298.1175 67.0731 297.6987 66.4851 297.3856 65.8166C297.0726 65.1482 296.916 64.4333 296.916 63.6718C296.916 62.9103 297.0726 62.1953 297.3856 61.5269C297.6987 60.8585 298.1175 60.2705 298.6421 59.7628C299.1666 59.2551 299.7928 58.8532 300.5204 58.5571C301.2481 58.261 302.0095 58.1129 302.8049 58.1129C303.6171 58.1129 304.3829 58.261 305.102 58.5571C305.8212 58.8532 306.4431 59.2551 306.9677 59.7628C307.4923 60.2705 307.9111 60.8585 308.2241 61.5269C308.5372 62.1953 308.6937 62.9103 308.6937 63.6718ZM305.927 63.6464C305.927 62.8003 305.6182 62.0727 305.0005 61.4635C304.3829 60.8543 303.6425 60.5497 302.7795 60.5497C301.9334 60.5497 301.2057 60.8543 300.5966 61.4635C299.9874 62.0727 299.6828 62.8003 299.6828 63.6464C299.6828 64.5094 299.9874 65.2413 300.5966 65.842C301.2057 66.4428 301.9334 66.7431 302.7795 66.7431C303.6425 66.7431 304.3829 66.4428 305.0005 65.842C305.6182 65.2413 305.927 64.5094 305.927 63.6464Z"/>
</g>
</svg>
