<svg xmlns="http://www.w3.org/2000/svg" width="49.112" height="49.112" viewBox="0 0 49.112 49.112"><defs><clipPath id="a"><path fill="none" stroke="#c9c9c9" d="m221.852 1008.657 17.485 17.485-17.485 17.486a10 10 0 0 1-14.142 0l-17.485-17.486 17.485-17.485a10 10 0 0 1 14.142 0Z"/></clipPath><clipPath id="b"><path d="M0 0h13440v6720H0z"/></clipPath></defs><g clip-path="url(#a)" transform="translate(-190.225 -1001.586)"><g clip-path="url(#b)" transform="matrix(.006766748 0 0 .006766748 175.0163 1003.373)" fill="none"><path fill="#fff" d="M0 0h13440v6720H0z"/><path stroke="#c00" stroke-width="480" d="M480 240h12960m0 960H480m0 960h12960m0 960H480"/><path fill="#006" d="M0 0h6720v4080H0z"/><path stroke="#c00" stroke-width="480" d="M0 4080h13440m0 960H0m0 960h13440"/><g transform="matrix(.5144505 0 0 .5144505 3374.3774 1460.6585)"><path fill="#fc0" d="m4200 720 107 732 414-613-222 706 639-373-506 540 738-59-690 267 690 267-738-59 506 540-639-373 222 706-414-613-107 732-107-732-414 613 222-706-639 373 506-540-738 59 690-267-690-267 738 59-506-540 639 373-222-706 414 613zm-600 30a1280 1280 0 1 0 0 2340 1440 1440 0 1 1 0-2340z"/></g></g></g><g fill="none" stroke="#c9c9c9"><path stroke="none" d="m31.627 7.071 17.485 17.485-17.485 17.486a10 10 0 0 1-14.142 0L0 24.556 17.485 7.071a10 10 0 0 1 14.142 0Z"/><path d="m31.274 7.425 17.131 17.131-17.131 17.132a9.5 9.5 0 0 1-13.436 0L.707 24.556 17.838 7.425a9.5 9.5 0 0 1 13.436 0Z"/></g></svg>